<svg width="54" height="50" viewBox="0 0 54 50" fill="none" xmlns="http://www.w3.org/2000/svg">
<rect x="0.176758" width="52.9412" height="50" rx="25" fill="#F4F5F7"/>
<path d="M19.1768 14H16.1768C15.9115 14 15.6572 14.1054 15.4697 14.2929C15.2821 14.4804 15.1768 14.7348 15.1768 15V35C15.1768 35.2652 15.2821 35.5196 15.4697 35.7071C15.6572 35.8946 15.9115 36 16.1768 36H19.1768V14Z" fill="#D6B1FF"/>
<path d="M21.1768 36H31.1768V14H21.1768V36ZM26.1768 32C25.9115 32 25.6572 31.8946 25.4697 31.7071C25.2821 31.5196 25.1768 31.2652 25.1768 31C25.1768 30.7348 25.2821 30.4804 25.4697 30.2929C25.6572 30.1054 25.9115 30 26.1768 30C26.442 30 26.6963 30.1054 26.8839 30.2929C27.0714 30.4804 27.1768 30.7348 27.1768 31C27.1768 31.2652 27.0714 31.5196 26.8839 31.7071C26.6963 31.8946 26.442 32 26.1768 32ZM26.1768 18C26.442 18 26.6963 18.1054 26.8839 18.2929C27.0714 18.4804 27.1768 18.7348 27.1768 19C27.1768 19.2652 27.0714 19.5196 26.8839 19.7071C26.6963 19.8946 26.442 20 26.1768 20C25.9115 20 25.6572 19.8946 25.4697 19.7071C25.2821 19.5196 25.1768 19.2652 25.1768 19C25.1768 18.7348 25.2821 18.4804 25.4697 18.2929C25.6572 18.1054 25.9115 18 26.1768 18ZM26.1768 24C26.442 24 26.6963 24.1054 26.8839 24.2929C27.0714 24.4804 27.1768 24.7348 27.1768 25C27.1768 25.2652 27.0714 25.5196 26.8839 25.7071C26.6963 25.8946 26.442 26 26.1768 26C25.9115 26 25.6572 25.8946 25.4697 25.7071C25.2821 25.5196 25.1768 25.2652 25.1768 25C25.1768 24.7348 25.2821 24.4804 25.4697 24.2929C25.6572 24.1054 25.9115 24 26.1768 24Z" fill="#F03E3D"/>
<path d="M36.1768 14H33.1768V36H36.1768C36.442 36 36.6963 35.8946 36.8839 35.7071C37.0714 35.5196 37.1768 35.2652 37.1768 35V15C37.1768 14.7348 37.0714 14.4804 36.8839 14.2929C36.6963 14.1054 36.442 14 36.1768 14Z" fill="#F03E3D"/>
</svg>
