<svg width="53" height="50" viewBox="0 0 53 50" fill="none" xmlns="http://www.w3.org/2000/svg">
<rect width="52.9412" height="50" rx="25" fill="#F4F5F7"/>
<path d="M35 37H26C25.7348 37 25.4804 36.8946 25.2929 36.7071C25.1054 36.5196 25 36.2652 25 36V34C25 33.7348 25.1054 33.4804 25.2929 33.2929C25.4804 33.1054 25.7348 33 26 33H35C35.2652 33 35.5196 33.1054 35.7071 33.2929C35.8946 33.4804 36 33.7348 36 34V36C36 36.2652 35.8946 36.5196 35.7071 36.7071C35.5196 36.8946 35.2652 37 35 37Z" fill="#D6B1FF"/>
<path d="M35 13H17C16.7348 13 16.4804 13.1054 16.2929 13.2929C16.1054 13.4804 16 13.7348 16 14V16C16 16.2652 16.1054 16.5196 16.2929 16.7071C16.4804 16.8946 16.7348 17 17 17H35C35.2652 17 35.5196 16.8946 35.7071 16.7071C35.8946 16.5196 36 16.2652 36 16V14C36 13.7348 35.8946 13.4804 35.7071 13.2929C35.5196 13.1054 35.2652 13 35 13Z" fill="#11B5E4"/>
<path d="M35 19H17C16.7348 19 16.4804 19.1054 16.2929 19.2929C16.1054 19.4804 16 19.7348 16 20V30C16 30.2652 16.1054 30.5196 16.2929 30.7071C16.4804 30.8946 16.7348 31 17 31H35C35.2652 31 35.5196 30.8946 35.7071 30.7071C35.8946 30.5196 36 30.2652 36 30V20C36 19.7348 35.8946 19.4804 35.7071 19.2929C35.5196 19.1054 35.2652 19 35 19Z" fill="#11B5E4"/>
</svg>
